<svg xmlns="http://www.w3.org/2000/svg" width="52.772" height="51.512" viewBox="0 0 52.772 51.512">
  <g id="file" transform="translate(-768 -289)">
    <g id="Group_1712" data-name="Group 1712" transform="translate(767.999 288.996)">
      <path id="Path_4386" data-name="Path 4386" d="M345.639,171.4h-14.22a1.224,1.224,0,0,0-1.222,1.222v31.6l-.163.05-3.488,1.068a.652.652,0,0,1-.814-.433l-10.376-33.893a.652.652,0,0,1,.433-.814l5.376-1.646,15.584-4.77,5.375-1.646a.651.651,0,0,1,.814.432l2.652,8.663Z" transform="translate(-312.136 -159.812)" fill="#f2f2f2"/>
      <path id="Path_4387" data-name="Path 4387" d="M312.788,145.338l-3.2-10.441a1.385,1.385,0,0,0-1.73-.919l-7.558,2.313-15.583,4.771-7.558,2.314a1.386,1.386,0,0,0-.919,1.73l10.925,35.684a1.387,1.387,0,0,0,1.325.98,1.368,1.368,0,0,0,.4-.061l5.181-1.586.163-.051v-.17l-.163.05-5.229,1.6a1.224,1.224,0,0,1-1.526-.811L276.4,145.058a1.221,1.221,0,0,1,.811-1.526l7.558-2.314,15.583-4.77,7.558-2.314a1.221,1.221,0,0,1,1.526.811l3.182,10.394.051.163h.169Z" transform="translate(-276.182 -133.913)" fill="#c8c8c8"/>
      <path id="Path_4388" data-name="Path 4388" d="M378.758,157.081a.735.735,0,0,1-.7-.519l-1.05-3.428a.733.733,0,0,1,.487-.916l14.336-4.389a.734.734,0,0,1,.916.487l1.05,3.428a.734.734,0,0,1-.487.916l-14.336,4.389A.731.731,0,0,1,378.758,157.081Z" transform="translate(-368.761 -146.662)" fill="#c8c8c8"/>
      <circle id="Ellipse_32" data-name="Ellipse 32" cx="1.63" cy="1.63" r="1.63" transform="translate(13.866 0.407)" fill="#c8c8c8"/>
      <circle id="Ellipse_33" data-name="Ellipse 33" cx="1.032" cy="1.032" r="1.032" transform="translate(14.463 1.005)" fill="#fff"/>
      <path id="Path_4389" data-name="Path 4389" d="M560.552,328.473H533.011a.693.693,0,0,1-.693-.693v-33a.693.693,0,0,1,.693-.693h27.542a.693.693,0,0,1,.693.693v33A.693.693,0,0,1,560.552,328.473Z" transform="translate(-511.446 -281.032)" fill="#e6e6e6"/>
      <path id="Path_4390" data-name="Path 4390" d="M514.356,274.087H497.2a1.387,1.387,0,0,0-1.385,1.385V308.7l.163-.05v-33.18a1.224,1.224,0,0,1,1.222-1.222h17.2Zm14.952,0H497.2a1.387,1.387,0,0,0-1.385,1.385v37.32a1.387,1.387,0,0,0,1.385,1.385h32.1a1.387,1.387,0,0,0,1.385-1.385v-37.32A1.387,1.387,0,0,0,529.308,274.087Zm1.222,38.7a1.224,1.224,0,0,1-1.222,1.222H497.2a1.224,1.224,0,0,1-1.222-1.222v-37.32a1.224,1.224,0,0,1,1.222-1.222h32.1a1.224,1.224,0,0,1,1.222,1.222Z" transform="translate(-477.92 -262.662)" fill="#c8c8c8"/>
      <path id="Path_4391" data-name="Path 4391" d="M624.544,261.139H609.551a.734.734,0,0,1-.733-.733V256.82a.734.734,0,0,1,.733-.733h14.993a.734.734,0,0,1,.733.733v3.585A.734.734,0,0,1,624.544,261.139Z" transform="translate(-581.713 -246.128)" fill="#c8c8c8"/>
      <circle id="Ellipse_34" data-name="Ellipse 34" cx="1.63" cy="1.63" r="1.63" transform="translate(33.706 6.944)" fill="#c8c8c8"/>
      <circle id="Ellipse_35" data-name="Ellipse 35" cx="0.993" cy="0.993" r="0.993" transform="translate(34.343 7.581)" fill="#fff"/>
    </g>
  </g>
</svg>
